<svg width="52" height="52" viewBox="0 0 52 52" fill="none" xmlns="http://www.w3.org/2000/svg">
<mask id="mask0" mask-type="alpha" maskUnits="userSpaceOnUse" x="0" y="0" width="52" height="52">
<path fill-rule="evenodd" clip-rule="evenodd" d="M26.281 49.0893C39.1556 49.0893 49.5926 38.6524 49.5926 25.7778C49.5926 12.9032 39.1556 2.46625 26.281 2.46625C13.4064 2.46625 2.96948 12.9032 2.96948 25.7778C2.96948 38.6524 13.4064 49.0893 26.281 49.0893ZM26.281 51.268C40.3589 51.268 51.7712 39.8556 51.7712 25.7778C51.7712 11.6999 40.3589 0.287598 26.281 0.287598C12.2032 0.287598 0.790833 11.6999 0.790833 25.7778C0.790833 39.8556 12.2032 51.268 26.281 51.268Z" fill="#C4C4C4"/>
</mask>
<g mask="url(#mask0)">
<path d="M-0.249573 -1.79324H53.8521V56.4701H-0.249573V-1.79324Z" fill="#1BB500"/>
<rect x="39.2165" y="-3.75845" width="9.71055" height="9.71055" transform="rotate(45 39.2165 -3.75845)" fill="#1BB500"/>
<rect x="23.4488" y="-1.33081" width="11.329" height="5.66449" fill="#1BB500"/>
<path d="M25.0672 25.3732H54.1989V54.5048H25.0672V25.3732Z" fill="#1BB500"/>
</g>
<rect x="12.4418" y="24.7835" width="18.7275" height="4.16166" rx="2.08083" transform="rotate(33.3379 12.4418 24.7835)" fill="#1BB500"/>
<rect x="40.095" y="16.8223" width="26.0104" height="4.16166" rx="2.08083" transform="rotate(123.338 40.095 16.8223)" fill="#1BB500"/>
</svg>
