<svg xmlns="http://www.w3.org/2000/svg" xmlns:xlink="http://www.w3.org/1999/xlink" width="24" height="23" viewBox="0 0 24 23"><defs><path id="t0dva" d="M1523.983 27c6.607 0 11.982 4.888 11.982 10.895 0 2.1-.657 4.133-1.904 5.892.236 2.638.868 4.597 1.787 5.525.122.122.152.309.075.464a.397.397 0 0 1-.413.22c-.161-.022-3.919-.569-6.637-2.154-1.544.63-3.188.947-4.89.947-6.608 0-11.983-4.887-11.983-10.894 0-6.007 5.375-10.896 11.983-10.896zm5.591 12.509c.882 0 1.598-.724 1.598-1.614 0-.891-.716-1.614-1.598-1.614-.88 0-1.597.723-1.597 1.614 0 .89.716 1.614 1.597 1.614zm-5.591 0c.88 0 1.597-.724 1.597-1.614 0-.891-.716-1.614-1.597-1.614s-1.598.723-1.598 1.614c0 .89.716 1.614 1.598 1.614zm-5.592 0c.88 0 1.597-.724 1.597-1.614 0-.891-.716-1.614-1.597-1.614s-1.598.723-1.598 1.614c0 .89.717 1.614 1.598 1.614z"/></defs><g><g transform="translate(-1512 -27)"><use fill="#ffc60d" xlink:href="#t0dva"/></g></g></svg>