<svg xmlns="http://www.w3.org/2000/svg" xmlns:xlink="http://www.w3.org/1999/xlink" width="30" height="16" viewBox="0 0 30 16"><defs><path id="t5qva" d="M1794.62 46.619c0 1.313-1.12 2.38-2.504 2.38-1.385 0-2.504-1.067-2.504-2.38 0-1.318 1.119-2.386 2.504-2.386s2.504 1.068 2.504 2.386zm-1.252 0c0-.659-.56-1.191-1.252-1.191s-1.252.532-1.252 1.19c0 .656.56 1.191 1.252 1.191s1.252-.535 1.252-1.19zM1811 45.014c0 .635-.54 1.149-1.208 1.149h-1.292c-.233-1.524-1.614-2.695-3.28-2.695-1.663 0-3.044 1.171-3.277 2.695h-6.55c-.233-1.524-1.614-2.695-3.276-2.695-1.663 0-3.043 1.171-3.277 2.695h-1.618c-.667 0-1.208-.514-1.208-1.149v-2.542H1811zm-3.274 1.605c0 1.313-1.123 2.38-2.503 2.38-1.385 0-2.508-1.067-2.508-2.38 0-1.318 1.123-2.386 2.508-2.386 1.38 0 2.503 1.068 2.503 2.386zm-1.251 0c0-.659-.564-1.191-1.252-1.191-.693 0-1.252.532-1.252 1.19 0 .656.56 1.191 1.252 1.191.688 0 1.252-.535 1.252-1.19zm4.524-5.621v.839h-24.986V39.58l-5.013-.9 8.765-.722-8.765-1.186 8.796-.831-8.683-1.075 4.9-.538v-.18c0-.635.544-1.148 1.208-1.148h13.823c.668 0 1.208.513 1.208 1.149v.853h2.395c.423 0 .83.161 1.131.445l4.746 4.464a1.5 1.5 0 0 1 .475 1.087zm-2.415-1.248l-3.716-3.374a.21.21 0 0 0-.132-.048h-.874c-.105 0-.19.08-.19.18v3.372c0 .1.085.18.19.18h4.593c.17 0 .254-.2.129-.31z"/></defs><g><g transform="translate(-1781 -33)"><use fill="#ffc60d" xlink:href="#t5qva"/></g></g></svg>