<?xml version="1.0" encoding="utf-8"?>
<!-- Generator: Adobe Illustrator 22.0.1, SVG Export Plug-In . SVG Version: 6.00 Build 0)  -->
<svg version="1.1" id="Слой_1" xmlns="http://www.w3.org/2000/svg" xmlns:xlink="http://www.w3.org/1999/xlink" x="0px" y="0px"
	 viewBox="0 0 53 53" style="enable-background:new 0 0 53 53;" xml:space="preserve">
<style type="text/css">
	.st0{fill:#3B374E;}
</style>
<g>
	<g transform="translate(-1120 -7336)">
		<g>
			<path id="i49da" class="st0" d="M1168,7375c1.1,1.1,1.7,2.4,1.7,3.8c0,1.4-0.6,2.7-1.7,3.9c-0.5,0.5-1,1-1.4,1.4
				c-0.7,0.7-1.4,1.3-1.9,2c0,0,0,0,0,0.1c-1.7,1.8-3.9,2.8-6.4,2.8c-0.2,0-0.5,0-0.7,0c-3.8-0.2-7.2-1.7-9.8-2.9
				c-6.7-3.2-12.6-7.9-17.4-13.7c-4-4.8-6.7-9.4-8.5-14.2c-0.7-2-1.7-5-1.4-8.3c0.2-2,1-3.8,2.4-5.2l3.8-3.8c0,0,0,0,0,0
				c1.1-1.1,2.4-1.6,3.8-1.6s2.6,0.6,3.7,1.6c0.7,0.7,1.4,1.4,2.1,2.1c0.3,0.4,0.7,0.7,1,1.1l3,3c2.3,2.3,2.3,5.4,0,7.7
				c-0.3,0.3-0.6,0.6-0.9,0.9c-0.8,0.8-1.7,1.7-2.6,2.5c0.7,1.5,1.6,3,3,4.8c2.9,3.5,5.9,6.3,9.2,8.4c0.3,0.2,0.7,0.4,1.1,0.6
				c0.3,0.1,0.6,0.3,0.9,0.4l3.5-3.5c1.1-1.1,2.4-1.7,3.8-1.7c1.4,0,2.7,0.6,3.8,1.7L1168,7375z M1165.8,7377.1l-6.1-6.1l0,0
				c-0.3-0.4-0.9-0.8-1.6-0.8c-0.7,0-1.3,0.5-1.7,0.8l-3.8,3.8c-0.2,0.2-0.8,0.8-1.7,0.8c-0.4,0-0.7-0.1-1.1-0.3
				c0,0-0.1-0.1-0.1-0.1c-0.3-0.2-0.7-0.4-1.1-0.6c-0.5-0.2-0.9-0.5-1.4-0.7c-3.6-2.3-6.8-5.2-9.9-9l0,0c-1.7-2.2-2.8-4-3.6-5.9
				l0-0.1c-0.2-0.6-0.4-1.6,0.6-2.5c0,0,0,0,0.1-0.1c1-0.9,1.9-1.8,2.8-2.7c0.3-0.3,0.6-0.6,1-1c1.2-1.2,1.2-2.3,0-3.5l-3-3
				c-0.4-0.4-0.7-0.7-1.1-1.1c-0.7-0.7-1.3-1.3-2-2c0,0,0,0,0,0c-0.4-0.4-0.9-0.8-1.6-0.8c-0.6,0-1.1,0.3-1.7,0.8l-3.8,3.8
				c-0.9,0.9-1.4,2-1.5,3.3c-0.2,2,0.2,4.2,1.2,7c1.7,4.6,4.2,8.8,8,13.4c4.6,5.5,10.1,9.8,16.4,12.9c2.3,1.1,5.4,2.4,8.7,2.6
				c0.2,0,0.3,0,0.5,0c1.7,0,3.1-0.6,4.2-1.8c0.7-0.8,1.4-1.5,2.1-2.2c0.5-0.5,0.9-0.9,1.4-1.4c0,0,0,0,0,0
				C1167,7379.4,1167,7378.3,1165.8,7377.1L1165.8,7377.1z M1147.5,7347c0.1-0.8,0.9-1.4,1.7-1.2c3.5,0.6,6.8,2.3,9.3,4.8
				c2.5,2.5,4.2,5.8,4.8,9.3c0.1,0.8-0.4,1.6-1.2,1.7c0,0,0,0,0,0c-0.1,0-0.2,0-0.3,0c-0.7,0-1.4-0.5-1.5-1.3
				c-0.5-2.9-1.9-5.6-4-7.7c-2.1-2.1-4.8-3.5-7.7-4C1147.9,7348.6,1147.3,7347.8,1147.5,7347L1147.5,7347z M1171.6,7361.2
				c-0.1,0-0.2,0-0.3,0c-0.7,0-1.4-0.5-1.5-1.3c-0.9-5.2-3.3-9.9-7.1-13.7c-3.8-3.8-8.5-6.2-13.7-7.1c-0.8-0.1-1.4-0.9-1.2-1.7
				c0.1-0.8,0.9-1.4,1.7-1.2c5.8,1,11.1,3.7,15.3,8c4.2,4.2,6.9,9.5,7.9,15.3C1173,7360.3,1172.5,7361,1171.6,7361.2
				C1171.6,7361.2,1171.6,7361.2,1171.6,7361.2L1171.6,7361.2z"/>
		</g>
	</g>
</g>
</svg>
