<?xml version="1.0" encoding="utf-8"?>
<!-- Generator: Adobe Illustrator 22.0.1, SVG Export Plug-In . SVG Version: 6.00 Build 0)  -->
<svg version="1.1" id="Слой_1" xmlns="http://www.w3.org/2000/svg" xmlns:xlink="http://www.w3.org/1999/xlink" x="0px" y="0px"
	 viewBox="0 0 70 62" style="enable-background:new 0 0 70 62;" xml:space="preserve">
<style type="text/css">
	.st0{fill:#3C384F;}
</style>
<g>
	<g transform="translate(-1510 -7293)">
		<g>
			<path id="nvlya" class="st0" d="M1568.5,7336.8C1568.5,7336.8,1568.5,7336.8,1568.5,7336.8l-20.6,18c-0.2,0.2-0.5,0.3-0.8,0.3
				h-5.9c-0.1,0-0.3,0-0.4-0.1l-18.4-6.8H1510v-2.3h12.7c0.1,0,0.3,0,0.4,0.1l18.4,6.8h5.2l19.3-16.8l-2.3-2.4l-16.8,12.3
				c-0.3,0.2-0.8,0.3-1.2,0.1l-12.8-5.9c-0.6-0.3-0.8-1-0.5-1.5c0.2-0.4,0.7-0.7,1.2-0.6l6.2,0.7l4.3-0.5v-2.9h-4.8l-9.5-1l-6.6,2.9
				c-0.1,0.1-0.3,0.1-0.5,0.1H1510v-2.3h12.5l6.6-2.8c0.2-0.1,0.4-0.1,0.6-0.1l9.7,1h5.8c0.6,0,1.2,0.5,1.2,1.2v5
				c0,0.6-0.4,1.1-1,1.2l-5.3,0.6l6,2.8l17.1-12.5c0.5-0.3,1.1-0.3,1.5,0.1l3.9,4C1569,7335.6,1569,7336.3,1568.5,7336.8
				L1568.5,7336.8z M1579.3,7321.9v2.3h-8.2c-0.3,0-0.6-0.1-0.8-0.4l-6.1-6.4l-11.9-1.1h-3.2c-1.2,5.2-5.8,9-11.3,9
				c-6.4,0-11.5-5.2-11.5-11.5c0-5.8,4.3-10.6,9.8-11.4l12.6-9.1c0.3-0.2,0.6-0.3,0.9-0.2l19.6,4.6c0.2,0,0.3,0.1,0.4,0.2l10.4,8.1
				l-1.4,1.9l-10.2-7.9l-18.9-4.4l-9.7,7c1.1,0.2,2.2,0.6,3.1,1.1l6.9-3.4c0.3-0.1,0.6-0.1,0.9,0l5.8,2.3l-0.9,2.1l-5.3-2.2
				l-5.3,2.6c1,0.9,1.9,1.9,2.6,3.1l4.3-0.9c0.2,0,0.3,0,0.5,0l6.4,1.4l5.9-0.6l0.3,2.3l-6.1,0.7c-0.1,0-0.3,0-0.4,0l-6.3-1.4
				l-4.5,0.9l-0.2,3.5h4.8l12.5,1.2c0.3,0,0.5,0.2,0.7,0.4l6.1,6.3L1579.3,7321.9z M1546.3,7316.3c-0.6,0-1.2-0.5-1.2-1.2
				c0,0,0,0,0-0.1l0.4-5.6c0-0.2,0.1-0.3,0.1-0.4c-2.4-4-7.5-5.6-11.8-3.6c-4.6,2.1-6.7,7.6-4.5,12.2s7.6,6.7,12.3,4.5
				c2.5-1.1,4.3-3.3,5-5.9H1546.3z M1542.4,7316.2c0,1.8-1.9,3.3-4.2,3.3h-0.8c-2.3,0-4.2-1.5-4.2-3.4v-0.3h2.3v0.3
				c0,0.5,0.8,1.1,1.9,1.1h0.8c1.1,0,1.9-0.6,1.9-1.1c0-0.5-0.5-0.9-1.5-1.1l-2-0.3c-1.8-0.1-3.3-1.5-3.5-3.3c0-1.7,1.5-3.1,3.5-3.4
				v-1.2h2.3v1.2c2,0.3,3.5,1.7,3.5,3.4v0.3h-2.3v-0.3c0-0.5-0.8-1.1-1.9-1.1h-0.8c-1.1-0.1-1.9,0.5-1.9,1.1c0,0.6,0.5,0.9,1.5,1.1
				l2,0.3C1540.7,7313,1542.2,7314.4,1542.4,7316.2L1542.4,7316.2z"/>
		</g>
	</g>
</g>
</svg>
