<svg width="1792" height="1792" xmlns="http://www.w3.org/2000/svg">

 <g>
  <title>background</title>
  <rect fill="none" id="canvas_background" height="402" width="582" y="-1" x="-1"/>
 </g>
 <g>
  <title>Layer 1</title>
  <path fill="#ffffff" id="svg_1" d="m1792,892.320459q0,174 -120,321.5t-326,233t-450,85.5q-70,0 -145,-8q-198,175 -460,242q-49,14 -114,22q-17,2 -30.5,-9t-17.5,-29l0,-1q-3,-4 -0.5,-12t2,-10t4.5,-9.5l6,-9l7,-8.5l8,-9q7,-8 31,-34.5t34.5,-38t31,-39.5t32.5,-51t27,-59t26,-76q-157,-89 -247.5,-220t-90.5,-281q0,-130 71,-248.5t191,-204.5t286,-136.5t348,-50.5q244,0 450,85.5t326,233t120,321.5z"/>
 </g>
</svg>