<svg width="512" height="512" xmlns="http://www.w3.org/2000/svg">

 <g>
  <title>background</title>
  <rect fill="none" id="canvas_background" height="402" width="582" y="-1" x="-1"/>
 </g>
 <g>
  <title>Layer 1</title>
  <path fill="#ffffff" id="svg_1" d="m445,386.7l-84.8,-85.9c13.8,-24.1 21,-50.9 21,-77.9c0,-87.6 -71.2,-158.9 -158.6,-158.9c-87.4,0 -158.6,71.3 -158.6,158.9c0,87.6 71.2,158.9 158.6,158.9c27.9,0 55.5,-7.7 80.1,-22.4l84.4,85.6c1.9,1.9 4.6,3.1 7.3,3.1c2.7,0 5.4,-1.1 7.3,-3.1l43.3,-43.8c4,-4.1 4,-10.5 0,-14.5zm-222.4,-260.8c53.4,0 96.8,43.5 96.8,97c0,53.5 -43.4,97 -96.8,97c-53.4,0 -96.8,-43.5 -96.8,-97c0,-53.5 43.4,-97 96.8,-97z"/>
 </g>
</svg>