<?xml version="1.0" encoding="UTF-8"?>
<svg width="36px" height="34px" viewBox="0 0 36 34" version="1.1" xmlns="http://www.w3.org/2000/svg" xmlns:xlink="http://www.w3.org/1999/xlink">
    <!-- Generator: Sketch 54.1 (76490) - https://sketchapp.com -->
    <title>menu-icon-program</title>
    <desc>Created with Sketch.</desc>
    <g id="menu-icon-program" stroke="none" stroke-width="1" fill="none" fill-rule="evenodd" opacity="0.5">
        <path d="M32.8125,3 L3.1875,3 C1.97945313,3 1,3.95933036 1,5.14285714 L1,24.4285714 C1,25.6120313 1.97945313,26.5714286 3.1875,26.5714286 L15.21875,26.5714286 L15.21875,29.7142857 L12.03125,29.7142857 C10.8232031,29.7142857 9.84375,30.1110993 9.84375,31.2946261 C9.84375,32.4780859 10.8232031,33 12.03125,33 L23.96875,33 C25.1767969,33 26.15625,32.4780859 26.15625,31.2946261 C26.15625,30.1110993 25.1767969,29.7142857 23.96875,29.7142857 L20.78125,29.7142857 L20.78125,26.5714286 L32.8125,26.5714286 C34.0205469,26.5714286 35,25.6120312 35,24.4285714 L35,5.14285714 C35,3.95933036 34.0205469,3 32.8125,3 Z M30.625,22.2857143 L5.375,22.2857143 L5.375,7.28571429 L30.625,7.28571429 L30.625,22.2857143 Z" id="Shape" fill="#FFFFFF" fill-rule="nonzero"></path>
    </g>
</svg>