<?xml version="1.0" encoding="UTF-8"?>
<svg width="36px" height="34px" viewBox="0 0 36 34" version="1.1" xmlns="http://www.w3.org/2000/svg" xmlns:xlink="http://www.w3.org/1999/xlink">
    <!-- Generator: Sketch 54.1 (76490) - https://sketchapp.com -->
    <title>menu-icon-antenaplay</title>
    <desc>Created with Sketch.</desc>
    <g id="menu-icon-antenaplay" stroke="none" stroke-width="1" fill="none" fill-rule="evenodd">
        <g id="Group" transform="translate(4.000000, 1.000000)">
            <path d="M27.5168215,17.1983065 C28.0621774,18.1424623 27.7385312,19.3497558 26.7939523,19.8948675 L16.3662384,25.9126203 C15.4216491,26.4577319 14.2138147,26.1342379 13.6684588,25.1900758 C13.1231029,24.2459138 13.4467387,23.0386192 14.391328,22.4935065 L24.8190419,16.475761 C25.7636208,15.9306494 26.9714656,16.2541403 27.5168215,17.1983065 Z" id="Clip-2" fill="#00A1E4"></path>
            <path d="M13.3291692,19.268 L13.3291692,19.268 C13.8745251,20.2121558 13.5508892,21.4194597 12.6063,21.9645683 L4.99577283,26.3565423 C4.05118774,26.9016551 2.84335125,26.578161 2.2979943,25.633999 L2.2979943,25.633999 C1.75263839,24.6898369 2.07627735,23.4825413 3.02086244,22.9374296 L10.6313896,18.5454545 C11.5759789,18.0003429 12.7838133,18.3238338 13.3291692,19.268 Z" id="Clip-5" fill="#15BCE1"></path>
            <path d="M23.6187018,13.3223065 L23.6187018,13.3223065 C24.1640577,14.2664727 23.8404219,15.4737662 22.8958326,16.0188779 L17.0938369,19.3671688 C16.1492477,19.9122805 14.9414133,19.5887792 14.3960573,18.6446234 L14.3960573,18.6446234 C13.8507014,17.7004571 14.1743373,16.4931636 15.1189265,15.9480519 L20.9209222,12.5997714 C21.8655115,12.0546597 23.0733459,12.3781506 23.6187018,13.3223065 Z" id="Clip-8" fill="#FFF200"></path>
            <path d="M27.9466194,13.1041164 L19.0081275,18.2624473 L15.0594972,15.9837255 C15.0790244,15.9715407 15.098835,15.9596465 15.1189265,15.9480519 L24.3092023,10.6444186 L26.6526631,11.9968104 C27.1640959,12.2919535 27.5978073,12.6699804 27.9466194,13.1041164 L27.9466194,13.1041164 Z" id="Clip-11" fill="#FFD204"></path>
            <path d="M28.6315289,14.2756024 C29.1423775,15.5477617 29.084589,17.0332302 28.3456914,18.3124571 C28.0112331,18.8915004 27.5703865,19.3708694 27.0620797,19.7401387 L26.2255278,20.2229058 C24.9187027,20.80472 23.3609185,20.7744054 22.0272151,20.0047377 L20.3655734,19.0458181 L28.6315289,14.2756024 L28.6315289,14.2756024 Z" id="Clip-14" fill="#007CB5"></path>
            <path d="M12.8094559,25.7095564 L12.8094559,25.7095564 C13.3548118,26.6537184 13.031176,27.861014 12.0865867,28.4061268 L6.95642749,31.3667014 C6.0118424,31.9118136 4.80400591,31.5883198 4.25864896,30.6441579 L4.25864896,30.6441579 C3.71329305,29.6999958 4.03693201,28.4927003 4.9815171,27.9475886 L10.1116805,24.987013 C11.0562656,24.4419003 12.2641,24.7653943 12.8094559,25.7095564 Z" id="Clip-18" fill="#ED2392"></path>
            <path d="M9.25089606,4.62337662 L9.25089606,27.3766234 C9.25089606,29.9300436 7.18001229,32 4.62544803,32 C2.07088376,32 0,29.9300436 0,27.3766234 L0,4.62337662 C0,2.06995325 2.07088376,0 4.62544803,0 C7.18001229,0 9.25089606,2.06995325 9.25089606,4.62337662 Z" id="Clip-21" fill="#00A1E4"></path>
            <path d="M9.25089606,19.3421261 L9.25089606,23.9009446 L0.315238683,29.0576398 C0.111707881,28.5366307 0,27.9696666 0,27.3766234 L0,24.680743 L9.25089606,19.3421261 Z" id="Clip-24" fill="#006FB8"></path>
            <path d="M9.25089606,4.62337662 L9.25089606,12.6316301 L2.31349631,8.62811429 C0.83015193,7.77208404 0.000614407666,6.21883426 3.31378644e-07,4.62160709 C4.90918447e-05,4.49147885 0.0054762421,4.36260743 0.0160716499,4.23520287 C0.0711467734,3.57772341 0.268561391,2.92170112 0.620464874,2.31245714 C0.814522969,1.97648965 1.04439634,1.67407707 1.30248129,1.40725586 C1.43457136,1.2709271 1.57498318,1.14270222 1.72289812,1.02339946 C2.54932101,0.357954183 3.57980992,0.000295046981 4.62924553,1.52487394e-06 C4.84337859,0.000173497536 5.05410629,0.0148897564 5.26049329,0.0432153679 C5.83556624,0.122562311 6.4051993,0.31216804 6.93894434,0.620187013 L7.0198332,0.666867302 C8.35722456,1.47723486 9.25089606,2.94598712 9.25089606,4.62337662 Z" id="Clip-27" fill="#006FB8"></path>
            <path d="M9.25089606,25.4837646 L9.25089606,27.3766234 C9.25089606,29.0234121 8.38953166,30.4691087 7.09257707,31.2881295 L6.77348096,31.4722773 C6.13161646,31.8093054 5.40081177,32 4.62544803,32 C3.15551514,32 1.84572966,31.314634 0.99848657,30.2461616 L9.25089606,25.4837646 L9.25089606,25.4837646 Z" id="Clip-30" fill="#90278F"></path>
        </g>
    </g>
</svg>