<?xml version="1.0" encoding="UTF-8"?>
<svg width="36px" height="34px" viewBox="0 0 36 34" version="1.1" xmlns="http://www.w3.org/2000/svg" xmlns:xlink="http://www.w3.org/1999/xlink">
    <!-- Generator: Sketch 54.1 (76490) - https://sketchapp.com -->
    <title>menu-icon-categorii</title>
    <desc>Created with Sketch.</desc>
    <g id="menu-icon-categorii" stroke="none" stroke-width="1" fill="none" fill-rule="evenodd" opacity="0.5">
        <path d="M5,5 L31,5 C32.1045695,5 33,5.8954305 33,7 C33,8.1045695 32.1045695,9 31,9 L5,9 C3.8954305,9 3,8.1045695 3,7 C3,5.8954305 3.8954305,5 5,5 Z M5,15 L31,15 C32.1045695,15 33,15.8954305 33,17 C33,18.1045695 32.1045695,19 31,19 L5,19 C3.8954305,19 3,18.1045695 3,17 C3,15.8954305 3.8954305,15 5,15 Z M5,25 L31,25 C32.1045695,25 33,25.8954305 33,27 C33,28.1045695 32.1045695,29 31,29 L5,29 C3.8954305,29 3,28.1045695 3,27 C3,25.8954305 3.8954305,25 5,25 Z" id="Combined-Shape" fill="#FFFFFF" fill-rule="nonzero"></path>
    </g>
</svg>