<?xml version="1.0" encoding="UTF-8"?>
<svg width="36px" height="34px" viewBox="0 0 36 34" version="1.1" xmlns="http://www.w3.org/2000/svg" xmlns:xlink="http://www.w3.org/1999/xlink">
    <!-- Generator: Sketch 54.1 (76490) - https://sketchapp.com -->
    <title>menu-icon-emisiuni</title>
    <desc>Created with Sketch.</desc>
    <g id="menu-icon-emisiuni" stroke="none" stroke-width="1" fill="none" fill-rule="evenodd" opacity="0.5">
        <path d="M35.9983317,1.00500469 L36,2.68684457 L36,13.223038 C36,16.9456508 34.1064,20.0324043 30.5236976,22.1493012 C27.9360878,23.6782784 25.2878049,24.2640908 24.5853659,24.2640908 L24.5853659,17.1741106 L28.9756098,17.1741106 C28.9756098,14.9954892 27.2031805,13.223038 25.0243902,13.223038 C24.876,13.223038 24.7296293,13.231906 24.5853659,13.2480615 L24.5804488,6.42139835 L21.3173561,7.22811956 L19.692439,7.62981194 C19.5972585,7.65211355 17.561678,8.1175499 14.0487805,8.31080124 L14.0487805,1 L15.6852,1.40924331 C15.7175122,1.41723326 19.1455024,2.24792432 25.0243024,2.24792432 C30.9031024,2.24792432 34.3310927,1.41723326 34.3650732,1.40880431 L35.9983317,1.00500469 Z M29.8536585,11.4670058 C30.5810341,11.4670058 31.1707317,10.8773302 31.1707317,10.1499816 C31.1707317,9.42263306 30.5810341,8.83295743 29.8536585,8.83295743 C29.1262829,8.83295743 28.5365854,9.42263306 28.5365854,10.1499816 C28.5365854,10.8773302 29.1262829,11.4670058 29.8536585,11.4670058 Z M21.9512195,11.4670058 L21.9512195,22.0031993 C21.9512195,25.725812 20.0576195,28.8125655 16.4749171,30.9294624 C13.8873951,32.4584397 11.319278,32.9374853 11.211278,32.9571528 L10.9756098,33 L10.7399415,32.9571528 C10.6319415,32.9374853 8.0639122,32.4584397 5.47630244,30.9294624 C1.8936,28.8125655 2.30926389e-14,25.725812 2.30926389e-14,22.0031993 L2.30926389e-14,9.78016123 L1.63650732,10.1894045 C1.66881951,10.1973945 5.09680976,11.0280855 10.9756098,11.0280855 C16.8544098,11.0280855 20.2824,10.1973945 20.3163805,10.1889655 L21.9495512,9.78516592 L21.9512195,11.4670058 Z M4.82926829,18.9301428 C4.82926829,19.6574914 5.41896585,20.247167 6.14634146,20.247167 C6.87371707,20.247167 7.46341463,19.6574914 7.46341463,18.9301428 C7.46341463,18.2027943 6.87371707,17.6131187 6.14634146,17.6131187 C5.41896585,17.6131187 4.82926829,18.2027943 4.82926829,18.9301428 Z M10.9756098,27.271296 C13.1544,27.271296 14.9268293,25.4988449 14.9268293,23.3202235 L7.02439024,23.3202235 C7.02439024,25.4988449 8.79690732,27.271296 10.9756098,27.271296 Z M15.804878,20.247167 C16.5322537,20.247167 17.1219512,19.6574914 17.1219512,18.9301428 C17.1219512,18.2027943 16.5322537,17.6131187 15.804878,17.6131187 C15.0775024,17.6131187 14.4878049,18.2027943 14.4878049,18.9301428 C14.4878049,19.6574914 15.0775024,20.247167 15.804878,20.247167 Z" id="Combined-Shape" fill="#FFFFFF" fill-rule="nonzero"></path>
    </g>
</svg>