<?xml version="1.0" encoding="UTF-8"?>
<svg width="36px" height="34px" viewBox="0 0 36 34" version="1.1" xmlns="http://www.w3.org/2000/svg" xmlns:xlink="http://www.w3.org/1999/xlink">
    <!-- Generator: Sketch 54.1 (76490) - https://sketchapp.com -->
    <title>menu-icon-populare</title>
    <desc>Created with Sketch.</desc>
    <g id="menu-icon-populare" stroke="none" stroke-width="1" fill="none" fill-rule="evenodd" opacity="0.5">
        <path d="M29.928776,19.3210366 C29.5469401,14.3994625 27.2323568,11.3153173 25.1904297,8.5937208 C23.2996745,6.0741203 21.6666667,3.89831263 21.6666667,0.688677265 C21.6666667,0.430864873 21.5208333,0.195224348 21.2895833,0.0770818197 C21.0576172,-0.0417696927 20.7789063,-0.0223048571 20.5680339,0.129417735 C17.5013672,2.30187385 14.9426432,5.96338988 14.0488281,9.45700559 C13.4283203,11.8892721 13.346224,14.6236304 13.3347005,16.4295417 C10.5026693,15.830708 9.86113281,11.6368738 9.85436198,11.5911766 C9.82246094,11.3736474 9.68821615,11.1843486 9.49290365,11.0809658 C9.29557292,10.9789366 9.06360677,10.9715245 8.86354167,11.0695576 C8.71503906,11.1407139 5.21835938,12.8996389 5.01490885,19.9225129 C5.00065104,20.1561554 5,20.3905068 5,20.6247938 C5,27.4476054 10.6077474,32.9989507 17.5,32.9989507 C17.5095052,32.9995953 17.5196615,33.0009488 17.5277995,32.9989507 C17.5305339,32.9989507 17.5332031,32.9989507 17.5365885,32.9989507 C24.4119141,32.9794214 30,27.4355527 30,20.6247938 C30,20.28171 29.928776,19.3210366 29.928776,19.3210366 Z M17.5,31.6240373 C15.2023438,31.6240373 13.3333333,29.6529971 13.3333333,27.2301407 C13.3333333,27.1475763 13.3326823,27.0643028 13.338737,26.9622736 C13.3665365,25.9404986 13.5625651,25.2429872 13.7775391,24.7790538 C14.1804036,25.6356999 14.9005859,26.4231879 16.0704427,26.4231879 C16.4542969,26.4231879 16.7649089,26.1156822 16.7649089,25.7357311 C16.7649089,24.7569464 16.7852865,23.6277281 17.0314453,22.6085957 C17.2505208,21.7049633 17.7740234,20.7435809 18.4373047,19.9729152 C18.7322917,20.9732273 19.3074219,21.7828227 19.8689453,22.5730176 C20.6725911,23.703525 21.5033203,24.8723819 21.6491536,26.8655939 C21.6579427,26.9837365 21.6667969,27.102588 21.6667969,27.2301407 C21.6666667,29.6529326 19.7976563,31.6240373 17.5,31.6240373 Z" id="Shape" fill="#FFFFFF" fill-rule="nonzero"></path>
    </g>
</svg>