<?xml version="1.0" encoding="UTF-8"?>
<svg width="36px" height="34px" viewBox="0 0 36 34" version="1.1" xmlns="http://www.w3.org/2000/svg" xmlns:xlink="http://www.w3.org/1999/xlink">
    <!-- Generator: Sketch 54.1 (76490) - https://sketchapp.com -->
    <title>menu-icon-noutati</title>
    <desc>Created with Sketch.</desc>
    <g id="menu-icon-noutati" stroke="none" stroke-width="1" fill="none" fill-rule="evenodd" opacity="0.5">
        <path d="M29.3138657,5.68627271 C32.335802,8.70836774 34,12.7263471 34,16.9999021 C34,21.2736529 32.3356063,25.2916322 29.3138657,28.3137273 C26.2919294,31.3356266 22.2737052,33 18.0000979,33 C13.7262948,33 9.70826633,31.3356266 6.68613433,28.3137273 C3.66419807,25.2916322 2,21.2736529 2,16.9999021 C2,12.7261514 3.66400234,8.70836774 6.68613433,5.68627271 C9.70826633,2.66437341 13.7262948,1 18.0000979,1 C22.2737052,1 26.2919294,2.66437341 29.3138657,5.68627271 Z M18.0001081,30.1526369 C25.2523884,30.1526369 31.1527978,24.2522997 31.1527978,16.9998919 C31.1527978,9.74770032 25.2523884,3.8473631 18.0001081,3.8473631 C10.7476116,3.8473631 4.84720223,9.74770032 4.84720223,16.9998919 C4.84720223,24.2522997 10.7476116,30.1526369 18.0001081,30.1526369 Z M18.0000979,6.98450349 C23.5228322,6.98450349 28.0158147,11.4772353 28.0158147,16.9999021 C28.0158147,22.5227647 23.5228322,27.0154964 18.0000979,27.0154964 C12.4773635,27.0154964 7.984381,22.5227647 7.984381,16.9999021 C7.984381,11.4772353 12.4773635,6.98450349 18.0000979,6.98450349 Z M16.9997004,18.9452914 L24.8028792,18.9452914 C25.3246045,18.9452914 25.7476991,18.0338899 25.7476991,17.512171 C25.7476991,16.9904521 25.3246045,16.0550938 24.8028792,16.0550938 L18.9449177,16.0550938 L18.9449177,10.197204 C18.9449177,9.67548509 18.0251541,9.25239572 17.5034288,9.25239572 C16.9817035,9.25239572 16.0548805,9.67548509 16.0548805,10.197204 L16.0548805,18.0002874 C16.0548805,18.5220063 16.477975,18.9452914 16.9997004,18.9452914 Z" id="Combined-Shape" fill="#FFFFFF" fill-rule="nonzero"></path>
    </g>
</svg>