<?xml version="1.0" encoding="UTF-8"?>
<svg width="36px" height="34px" viewBox="0 0 36 34" version="1.1" xmlns="http://www.w3.org/2000/svg" xmlns:xlink="http://www.w3.org/1999/xlink">
    <!-- Generator: Sketch 54.1 (76490) - https://sketchapp.com -->
    <title>menu-icon-cautare</title>
    <desc>Created with Sketch.</desc>
    <g id="menu-icon-cautare" stroke="none" stroke-width="1" fill="none" fill-rule="evenodd" opacity="0.5">
        <path d="M34.1195726,32.1195726 C33.5561931,32.683283 32.7918879,33 31.9949149,33 C31.197942,33 30.4336368,32.683283 29.8702573,32.1195726 L24.567128,26.8164432 C22.3853721,28.2128471 19.8069333,29.0482853 17.0241427,29.0482853 C9.27880901,29.0482853 3,22.7694763 3,15.0241427 C3,7.27880901 9.27880901,1 17.0241427,1 C24.7694763,1 31.0482853,7.27880901 31.0482853,15.0241427 C31.0482853,17.8069333 30.2128471,20.3853721 28.8164432,22.567128 L34.1195726,27.8702573 C34.683283,28.4336368 35,29.197942 35,29.9949149 C35,30.7918879 34.683283,31.5561931 34.1195726,32.1195726 L34.1195726,32.1195726 Z M17,5 C11.478,5 7,9.476 7,15 C7,20.524 11.478,25 17,25 C22.524,25 27,20.524 27,15 C27,9.476 22.524,5 17,5 Z" id="Shape" fill="#FFFFFF" fill-rule="nonzero"></path>
    </g>
</svg>