<svg width="99" height="30" viewBox="0 0 99 30" fill="none" xmlns="http://www.w3.org/2000/svg">
<path d="M17.6719 11.9108H23.3344V0H11.6983V6.11465H17.6719V11.9108Z" fill="#FA4D34"/>
<path d="M11.6361 11.9745V6.11465H0V18.0892H5.9736V11.9745H11.6361Z" fill="#E6392A"/>
<path d="M11.6361 18.0892H5.97361V30H17.6719V23.8854H11.6361V18.0892Z" fill="#FA4D34"/>
<path d="M17.6719 18.0892V23.8854H29.308V11.9108H23.3344V18.0892H17.6719Z" fill="#E6392A"/>
<path d="M39.4507 16.4331V6.05096H41.6908V14.3949H46.0465V16.4331H39.4507Z" fill="black"/>
<path d="M54.9447 16.4331L54.0113 14.2038H49.78L48.8466 16.4331H46.4199L50.8378 6.05096H53.0157L57.4337 16.4331H54.9447ZM51.8957 9.10829L50.5889 12.1019H53.1402L51.8957 9.10829Z" fill="black"/>
<path d="M57.9315 16.4331V14.8408L63.2828 8.02549H58.1182V6.05096H66.3319V7.64332L61.0427 14.3949H66.4563V16.4331H57.9315Z" fill="black"/>
<path d="M75.6656 16.4331L74.7322 14.2038H70.5009L69.5676 16.4331H67.1408L71.5588 6.05096H73.7366L78.1546 16.4331H75.6656ZM72.6166 9.10829L71.3099 12.1019H73.8611L72.6166 9.10829Z" fill="black"/>
<path d="M87.4884 9.49045C87.4884 11.1465 86.8661 12.2293 85.5594 12.7389L88.1106 16.4331H85.3105L83.0704 13.121H81.5148V16.4331H79.2747V6.05096H83.1326C84.6883 6.05096 85.8083 6.30574 86.4928 6.87899C87.1773 7.38854 87.4884 8.28026 87.4884 9.49045ZM84.7505 10.7006C85.0616 10.4459 85.186 10.0637 85.186 9.49045C85.186 8.91721 85.0616 8.53504 84.7505 8.34396C84.4393 8.15288 83.9415 8.02549 83.1948 8.02549H81.5148V11.0828H83.1948C83.9415 11.0828 84.5016 10.9554 84.7505 10.7006Z" fill="black"/>
<path d="M97.5688 7.38854C98.5644 8.28026 99 9.55415 99 11.1465C99 12.7389 98.5022 14.0127 97.5688 14.9682C96.6354 15.9236 95.2043 16.3694 93.2131 16.3694H89.7285V6.05096H93.3375C95.2043 6.05096 96.6354 6.49682 97.5688 7.38854ZM95.951 13.5669C96.511 13.0573 96.7599 12.2293 96.7599 11.2102C96.7599 10.1911 96.511 9.42676 95.951 8.85351C95.3909 8.28026 94.5198 8.02549 93.3997 8.02549H92.1552V14.3312H93.5864C94.582 14.3949 95.3909 14.1401 95.951 13.5669Z" fill="black"/>
<path d="M40.6329 24.6497L39.6995 21.0191H40.1973L40.6329 22.8663C40.7574 23.3121 40.8196 23.758 40.8818 24.1402C40.944 23.758 41.0685 23.3121 41.1929 22.8663L41.6907 21.0191H42.1885L42.6241 22.8663C42.7485 23.3121 42.8108 23.758 42.873 24.1402C42.9352 23.758 43.0597 23.3121 43.1841 22.8663L43.6819 21.0191H44.1797L43.1841 24.6497H42.6863L42.2508 22.7389C42.1263 22.293 42.0641 21.9109 42.0018 21.5287C41.9396 21.9109 41.8774 22.2293 41.7529 22.7389L41.2552 24.6497H40.6329Z" fill="#7A7A7A"/>
<path d="M47.5399 22.7389C47.5399 24.0127 46.7932 24.6497 45.8598 24.6497C44.9264 24.6497 44.242 23.8854 44.242 22.8026C44.242 21.6561 44.9265 20.8917 45.9221 20.8917C46.9177 20.8917 47.5399 21.6561 47.5399 22.7389ZM44.802 22.8026C44.802 23.5669 45.2376 24.2675 45.9221 24.2675C46.6688 24.2675 47.0421 23.5669 47.0421 22.7389C47.0421 22.0382 46.6688 21.2739 45.9221 21.2739C45.1754 21.2739 44.802 22.0382 44.802 22.8026Z" fill="#7A7A7A"/>
<path d="M48.1622 21.0191C48.4111 20.9554 48.7222 20.9554 49.0333 20.9554C49.5311 20.9554 49.8422 21.0191 50.0911 21.2739C50.2778 21.465 50.4023 21.6561 50.4023 21.9745C50.4023 22.4841 50.0911 22.8025 49.7178 22.9299C49.9667 23.0573 50.1534 23.3121 50.2156 23.6943C50.34 24.2038 50.4023 24.586 50.4645 24.7134H49.9667C49.9045 24.586 49.8422 24.2675 49.7178 23.8217C49.5933 23.3121 49.4067 23.121 49.0333 23.121H48.5977V24.7134H48.1622V21.0191ZM48.5977 22.6752H49.0955C49.5933 22.6752 49.9045 22.4204 49.9045 21.9745C49.9045 21.5287 49.5933 21.2739 49.0955 21.2739C48.8466 21.2739 48.7222 21.2739 48.66 21.3376V22.6752H48.5977Z" fill="#7A7A7A"/>
<path d="M51.0245 20.9554H51.4601V24.2038H53.0157V24.586H51.0245V20.9554Z" fill="#7A7A7A"/>
<path d="M53.5135 21.0191C53.8247 20.9554 54.1358 20.9554 54.5091 20.9554C55.1936 20.9554 55.6292 21.0828 55.9403 21.4013C56.2515 21.7197 56.4381 22.1019 56.4381 22.7389C56.4381 23.3121 56.2515 23.8217 55.9403 24.1401C55.6292 24.4586 55.0692 24.6497 54.3847 24.6497C54.0736 24.6497 53.7624 24.6497 53.5758 24.586V21.0191H53.5135ZM53.9491 24.2675C54.0736 24.2675 54.2603 24.2675 54.3847 24.2675C55.3803 24.2675 55.8781 23.6943 55.8781 22.7389C55.8781 21.8471 55.3803 21.3376 54.4469 21.3376C54.198 21.3376 54.0113 21.3376 53.8869 21.4013V24.2675H53.9491Z" fill="#7A7A7A"/>
<path d="M57.6204 24.6497L56.687 21.0191H57.1848L57.6204 22.8663C57.7448 23.3121 57.807 23.758 57.8693 24.1402C57.9315 23.758 58.0559 23.3121 58.1804 22.8663L58.6782 21.0191H59.176L59.6116 22.8663C59.736 23.3121 59.7982 23.758 59.8605 24.1402C59.9227 23.758 60.0471 23.3121 60.1716 22.8663L60.6694 21.0191H61.1672L60.1716 24.6497H59.6738L59.2382 22.7389C59.1138 22.293 59.0515 21.9109 58.9893 21.5287C58.9271 21.9109 58.8649 22.2293 58.7404 22.7389L58.2426 24.6497H57.6204Z" fill="#7A7A7A"/>
<path d="M61.9761 20.9554V24.586H61.5405V20.9554H61.9761Z" fill="#7A7A7A"/>
<path d="M62.7851 21.0191C63.0962 20.9554 63.4073 20.9554 63.7806 20.9554C64.4651 20.9554 64.9007 21.0828 65.2118 21.4013C65.523 21.7197 65.7096 22.1019 65.7096 22.7389C65.7096 23.3121 65.523 23.8217 65.2118 24.1401C64.9007 24.4586 64.3407 24.6497 63.6562 24.6497C63.3451 24.6497 63.0339 24.6497 62.8473 24.586V21.0191H62.7851ZM63.2206 24.2675C63.3451 24.2675 63.5318 24.2675 63.6562 24.2675C64.6518 24.2675 65.1496 23.6943 65.1496 22.7389C65.1496 21.8471 64.6518 21.3376 63.7184 21.3376C63.4695 21.3376 63.2828 21.3376 63.1584 21.4013V24.2675H63.2206Z" fill="#7A7A7A"/>
<path d="M68.1364 22.9299H66.7675V24.2038H68.3231V24.586H66.3319V20.9554H68.2609V21.3376H66.7675V22.4841H68.1364V22.9299Z" fill="#7A7A7A"/>
<path d="M70.5009 20.9554V22.4841H72.2432V20.9554H72.6788V24.586H72.2432V22.9299H70.5009V24.6497H70.0654V21.0191H70.5009V20.9554Z" fill="#7A7A7A"/>
<path d="M75.3545 22.9299H73.9855V24.2038H75.5412V24.586H73.55V20.9554H75.4789V21.3376H73.9855V22.4841H75.3545V22.9299Z" fill="#7A7A7A"/>
<path d="M76.6612 23.5032L76.2879 24.6497H75.7901L76.9723 21.0191H77.5324L78.7769 24.6497H78.2791L77.9057 23.5032H76.6612ZM77.8435 23.121L77.4701 22.0382C77.4079 21.7835 77.3457 21.5924 77.2835 21.4013C77.2212 21.5924 77.159 21.8472 77.0968 22.0382L76.7234 23.121H77.8435Z" fill="#7A7A7A"/>
<path d="M79.3369 20.9554H79.7725V24.2038H81.3281V24.586H79.3369V20.9554Z" fill="#7A7A7A"/>
<path d="M82.0748 21.4013H81.017V21.0191H83.6304V21.4013H82.5104V24.6497H82.0748V21.4013Z" fill="#7A7A7A"/>
<path d="M84.4394 20.9554V22.4841H86.1817V20.9554H86.6172V24.586H86.1817V22.9299H84.4394V24.6497H84.0038V21.0191H84.4394V20.9554Z" fill="#7A7A7A"/>
<path d="M89.9774 24.5223C89.7907 24.586 89.4796 24.7134 89.044 24.7134C88.0484 24.7134 87.3017 24.0764 87.3017 22.8662C87.3017 21.7197 88.0484 20.9554 89.1684 20.9554C89.604 20.9554 89.9151 21.0828 90.0396 21.1465L89.9151 21.5287C89.7285 21.465 89.4796 21.4013 89.1684 21.4013C88.3595 21.4013 87.7995 21.9745 87.7995 22.9299C87.7995 23.8217 88.2973 24.3949 89.1684 24.3949C89.4796 24.3949 89.7285 24.3312 89.9151 24.2675L89.9774 24.5223Z" fill="#7A7A7A"/>
<path d="M91.0974 23.5032L90.7241 24.6497H90.2263L91.4085 21.0191H91.9686L93.2131 24.6497H92.7153L92.3419 23.5032H91.0974ZM92.2797 23.121L91.9063 22.0382C91.8441 21.7835 91.7819 21.5924 91.7197 21.4013C91.6574 21.5924 91.5952 21.8472 91.533 22.0382L91.1596 23.121H92.2797Z" fill="#7A7A7A"/>
<path d="M93.7731 21.0191C94.022 20.9554 94.3331 20.9554 94.6443 20.9554C95.1421 20.9554 95.4532 21.0191 95.7021 21.2739C95.8888 21.465 96.0132 21.6561 96.0132 21.9745C96.0132 22.4841 95.7021 22.8025 95.3287 22.9299C95.5776 23.0573 95.7643 23.3121 95.8265 23.6943C95.951 24.2038 96.0132 24.586 96.0754 24.7134H95.5776C95.5154 24.586 95.4532 24.2675 95.3287 23.8217C95.2043 23.3121 95.0176 23.121 94.6443 23.121H94.2087V24.7134H93.7731V21.0191ZM94.2709 22.6752H94.7687C95.2665 22.6752 95.5776 22.4204 95.5776 21.9745C95.5776 21.5287 95.2665 21.2739 94.7687 21.2739C94.5198 21.2739 94.3954 21.2739 94.3331 21.3376V22.6752H94.2709Z" fill="#7A7A7A"/>
<path d="M98.5022 22.9299H97.071V24.2038H98.6266V24.586H96.6354V20.9554H98.5644V21.3376H97.071V22.4841H98.44V22.9299H98.5022Z" fill="#7A7A7A"/>
</svg>
